<mxfile host="Electron" agent="Mozilla/5.0 (X11; Linux x86_64) AppleWebKit/537.36 (KHTML, like Gecko) draw.io/26.1.1 Chrome/132.0.6834.210 Electron/34.3.3 Safari/537.36" version="26.1.1">
  <diagram id="R2lEEEUBdFMjLlhIrx00" name="Page-1">
    <mxGraphModel dx="1050" dy="623" grid="1" gridSize="10" guides="1" tooltips="1" connect="1" arrows="1" fold="1" page="1" pageScale="1" pageWidth="850" pageHeight="1100" math="0" shadow="0" extFonts="Permanent Marker^https://fonts.googleapis.com/css?family=Permanent+Marker">
      <root>
        <mxCell id="0" />
        <mxCell id="1" parent="0" />
        <mxCell id="F54rX1gRR6l31rGcLVEx-70" value="" style="shape=note;whiteSpace=wrap;html=1;backgroundOutline=1;darkOpacity=0.05;size=19;" vertex="1" parent="1">
          <mxGeometry x="360" y="90" width="80" height="40" as="geometry" />
        </mxCell>
        <mxCell id="C-vyLk0tnHw3VtMMgP7b-2" value="Country" style="shape=table;startSize=30;container=1;collapsible=1;childLayout=tableLayout;fixedRows=1;rowLines=0;fontStyle=1;align=center;resizeLast=1;" parent="1" vertex="1">
          <mxGeometry x="790" y="285" width="250" height="100" as="geometry" />
        </mxCell>
        <mxCell id="C-vyLk0tnHw3VtMMgP7b-3" value="" style="shape=partialRectangle;collapsible=0;dropTarget=0;pointerEvents=0;fillColor=none;points=[[0,0.5],[1,0.5]];portConstraint=eastwest;top=0;left=0;right=0;bottom=1;" parent="C-vyLk0tnHw3VtMMgP7b-2" vertex="1">
          <mxGeometry y="30" width="250" height="30" as="geometry" />
        </mxCell>
        <mxCell id="C-vyLk0tnHw3VtMMgP7b-4" value="PK" style="shape=partialRectangle;overflow=hidden;connectable=0;fillColor=none;top=0;left=0;bottom=0;right=0;fontStyle=1;" parent="C-vyLk0tnHw3VtMMgP7b-3" vertex="1">
          <mxGeometry width="30" height="30" as="geometry">
            <mxRectangle width="30" height="30" as="alternateBounds" />
          </mxGeometry>
        </mxCell>
        <mxCell id="C-vyLk0tnHw3VtMMgP7b-5" value="country_iso3_id char(3) NOT NULL" style="shape=partialRectangle;overflow=hidden;connectable=0;fillColor=none;top=0;left=0;bottom=0;right=0;align=left;spacingLeft=6;fontStyle=5;" parent="C-vyLk0tnHw3VtMMgP7b-3" vertex="1">
          <mxGeometry x="30" width="220" height="30" as="geometry">
            <mxRectangle width="220" height="30" as="alternateBounds" />
          </mxGeometry>
        </mxCell>
        <mxCell id="KNKU7a6bH15Ss6Z8EOJB-100" value="" style="shape=partialRectangle;collapsible=0;dropTarget=0;pointerEvents=0;fillColor=none;points=[[0,0.5],[1,0.5]];portConstraint=eastwest;top=0;left=0;right=0;bottom=0;" parent="C-vyLk0tnHw3VtMMgP7b-2" vertex="1">
          <mxGeometry y="60" width="250" height="30" as="geometry" />
        </mxCell>
        <mxCell id="KNKU7a6bH15Ss6Z8EOJB-101" value="" style="shape=partialRectangle;overflow=hidden;connectable=0;fillColor=none;top=0;left=0;bottom=0;right=0;" parent="KNKU7a6bH15Ss6Z8EOJB-100" vertex="1">
          <mxGeometry width="30" height="30" as="geometry">
            <mxRectangle width="30" height="30" as="alternateBounds" />
          </mxGeometry>
        </mxCell>
        <mxCell id="KNKU7a6bH15Ss6Z8EOJB-102" value="country_name string NOT NULL" style="shape=partialRectangle;overflow=hidden;connectable=0;fillColor=none;top=0;left=0;bottom=0;right=0;align=left;spacingLeft=6;" parent="KNKU7a6bH15Ss6Z8EOJB-100" vertex="1">
          <mxGeometry x="30" width="220" height="30" as="geometry">
            <mxRectangle width="220" height="30" as="alternateBounds" />
          </mxGeometry>
        </mxCell>
        <mxCell id="C-vyLk0tnHw3VtMMgP7b-23" value="Crime" style="shape=table;startSize=30;container=1;collapsible=1;childLayout=tableLayout;fixedRows=1;rowLines=0;fontStyle=1;align=center;resizeLast=1;" parent="1" vertex="1">
          <mxGeometry x="460" y="40" width="250" height="160" as="geometry" />
        </mxCell>
        <mxCell id="C-vyLk0tnHw3VtMMgP7b-24" value="" style="shape=partialRectangle;collapsible=0;dropTarget=0;pointerEvents=0;fillColor=none;points=[[0,0.5],[1,0.5]];portConstraint=eastwest;top=0;left=0;right=0;bottom=1;" parent="C-vyLk0tnHw3VtMMgP7b-23" vertex="1">
          <mxGeometry y="30" width="250" height="30" as="geometry" />
        </mxCell>
        <mxCell id="C-vyLk0tnHw3VtMMgP7b-25" value="PK" style="shape=partialRectangle;overflow=hidden;connectable=0;fillColor=none;top=0;left=0;bottom=0;right=0;fontStyle=1;" parent="C-vyLk0tnHw3VtMMgP7b-24" vertex="1">
          <mxGeometry width="30" height="30" as="geometry">
            <mxRectangle width="30" height="30" as="alternateBounds" />
          </mxGeometry>
        </mxCell>
        <mxCell id="C-vyLk0tnHw3VtMMgP7b-26" value="crime_id int NOT NULL " style="shape=partialRectangle;overflow=hidden;connectable=0;fillColor=none;top=0;left=0;bottom=0;right=0;align=left;spacingLeft=6;fontStyle=5;" parent="C-vyLk0tnHw3VtMMgP7b-24" vertex="1">
          <mxGeometry x="30" width="220" height="30" as="geometry">
            <mxRectangle width="220" height="30" as="alternateBounds" />
          </mxGeometry>
        </mxCell>
        <mxCell id="KNKU7a6bH15Ss6Z8EOJB-5" value="" style="shape=partialRectangle;collapsible=0;dropTarget=0;pointerEvents=0;fillColor=none;points=[[0,0.5],[1,0.5]];portConstraint=eastwest;top=0;left=0;right=0;bottom=0;" parent="C-vyLk0tnHw3VtMMgP7b-23" vertex="1">
          <mxGeometry y="60" width="250" height="30" as="geometry" />
        </mxCell>
        <mxCell id="KNKU7a6bH15Ss6Z8EOJB-6" value="FK1" style="shape=partialRectangle;overflow=hidden;connectable=0;fillColor=none;top=0;left=0;bottom=0;right=0;" parent="KNKU7a6bH15Ss6Z8EOJB-5" vertex="1">
          <mxGeometry width="30" height="30" as="geometry">
            <mxRectangle width="30" height="30" as="alternateBounds" />
          </mxGeometry>
        </mxCell>
        <mxCell id="KNKU7a6bH15Ss6Z8EOJB-7" value="country_iso3_idÂ char(3) NOT NULL" style="shape=partialRectangle;overflow=hidden;connectable=0;fillColor=none;top=0;left=0;bottom=0;right=0;align=left;spacingLeft=6;fontStyle=0" parent="KNKU7a6bH15Ss6Z8EOJB-5" vertex="1">
          <mxGeometry x="30" width="220" height="30" as="geometry">
            <mxRectangle width="220" height="30" as="alternateBounds" />
          </mxGeometry>
        </mxCell>
        <mxCell id="C-vyLk0tnHw3VtMMgP7b-27" value="" style="shape=partialRectangle;collapsible=0;dropTarget=0;pointerEvents=0;fillColor=none;points=[[0,0.5],[1,0.5]];portConstraint=eastwest;top=0;left=0;right=0;bottom=0;" parent="C-vyLk0tnHw3VtMMgP7b-23" vertex="1">
          <mxGeometry y="90" width="250" height="30" as="geometry" />
        </mxCell>
        <mxCell id="C-vyLk0tnHw3VtMMgP7b-28" value="FK2" style="shape=partialRectangle;overflow=hidden;connectable=0;fillColor=none;top=0;left=0;bottom=0;right=0;" parent="C-vyLk0tnHw3VtMMgP7b-27" vertex="1">
          <mxGeometry width="30" height="30" as="geometry">
            <mxRectangle width="30" height="30" as="alternateBounds" />
          </mxGeometry>
        </mxCell>
        <mxCell id="C-vyLk0tnHw3VtMMgP7b-29" value="year_id int NOT NULL" style="shape=partialRectangle;overflow=hidden;connectable=0;fillColor=none;top=0;left=0;bottom=0;right=0;align=left;spacingLeft=6;" parent="C-vyLk0tnHw3VtMMgP7b-27" vertex="1">
          <mxGeometry x="30" width="220" height="30" as="geometry">
            <mxRectangle width="220" height="30" as="alternateBounds" />
          </mxGeometry>
        </mxCell>
        <mxCell id="KNKU7a6bH15Ss6Z8EOJB-97" value="" style="shape=partialRectangle;collapsible=0;dropTarget=0;pointerEvents=0;fillColor=none;points=[[0,0.5],[1,0.5]];portConstraint=eastwest;top=0;left=0;right=0;bottom=0;" parent="C-vyLk0tnHw3VtMMgP7b-23" vertex="1">
          <mxGeometry y="120" width="250" height="30" as="geometry" />
        </mxCell>
        <mxCell id="KNKU7a6bH15Ss6Z8EOJB-98" value="" style="shape=partialRectangle;overflow=hidden;connectable=0;fillColor=none;top=0;left=0;bottom=0;right=0;" parent="KNKU7a6bH15Ss6Z8EOJB-97" vertex="1">
          <mxGeometry width="30" height="30" as="geometry">
            <mxRectangle width="30" height="30" as="alternateBounds" />
          </mxGeometry>
        </mxCell>
        <mxCell id="KNKU7a6bH15Ss6Z8EOJB-99" value="convicts_per_100000 float NOT NULL" style="shape=partialRectangle;overflow=hidden;connectable=0;fillColor=none;top=0;left=0;bottom=0;right=0;align=left;spacingLeft=6;" parent="KNKU7a6bH15Ss6Z8EOJB-97" vertex="1">
          <mxGeometry x="30" width="220" height="30" as="geometry">
            <mxRectangle width="220" height="30" as="alternateBounds" />
          </mxGeometry>
        </mxCell>
        <mxCell id="KNKU7a6bH15Ss6Z8EOJB-84" value="Immigration" style="shape=table;startSize=30;container=1;collapsible=1;childLayout=tableLayout;fixedRows=1;rowLines=0;fontStyle=1;align=center;resizeLast=1;" parent="1" vertex="1">
          <mxGeometry x="460" y="255" width="265" height="160" as="geometry" />
        </mxCell>
        <mxCell id="KNKU7a6bH15Ss6Z8EOJB-85" value="" style="shape=partialRectangle;collapsible=0;dropTarget=0;pointerEvents=0;fillColor=none;points=[[0,0.5],[1,0.5]];portConstraint=eastwest;top=0;left=0;right=0;bottom=1;" parent="KNKU7a6bH15Ss6Z8EOJB-84" vertex="1">
          <mxGeometry y="30" width="265" height="30" as="geometry" />
        </mxCell>
        <mxCell id="KNKU7a6bH15Ss6Z8EOJB-86" value="PK" style="shape=partialRectangle;overflow=hidden;connectable=0;fillColor=none;top=0;left=0;bottom=0;right=0;fontStyle=1;" parent="KNKU7a6bH15Ss6Z8EOJB-85" vertex="1">
          <mxGeometry width="30" height="30" as="geometry">
            <mxRectangle width="30" height="30" as="alternateBounds" />
          </mxGeometry>
        </mxCell>
        <mxCell id="KNKU7a6bH15Ss6Z8EOJB-87" value="immigration_id int NOT NULL" style="shape=partialRectangle;overflow=hidden;connectable=0;fillColor=none;top=0;left=0;bottom=0;right=0;align=left;spacingLeft=6;fontStyle=5;" parent="KNKU7a6bH15Ss6Z8EOJB-85" vertex="1">
          <mxGeometry x="30" width="235" height="30" as="geometry">
            <mxRectangle width="235" height="30" as="alternateBounds" />
          </mxGeometry>
        </mxCell>
        <mxCell id="KNKU7a6bH15Ss6Z8EOJB-88" value="" style="shape=partialRectangle;collapsible=0;dropTarget=0;pointerEvents=0;fillColor=none;points=[[0,0.5],[1,0.5]];portConstraint=eastwest;top=0;left=0;right=0;bottom=0;" parent="KNKU7a6bH15Ss6Z8EOJB-84" vertex="1">
          <mxGeometry y="60" width="265" height="30" as="geometry" />
        </mxCell>
        <mxCell id="KNKU7a6bH15Ss6Z8EOJB-89" value="FK1" style="shape=partialRectangle;overflow=hidden;connectable=0;fillColor=none;top=0;left=0;bottom=0;right=0;" parent="KNKU7a6bH15Ss6Z8EOJB-88" vertex="1">
          <mxGeometry width="30" height="30" as="geometry">
            <mxRectangle width="30" height="30" as="alternateBounds" />
          </mxGeometry>
        </mxCell>
        <mxCell id="KNKU7a6bH15Ss6Z8EOJB-90" value="country_iso3_idÂ char(3) NOT NULL" style="shape=partialRectangle;overflow=hidden;connectable=0;fillColor=none;top=0;left=0;bottom=0;right=0;align=left;spacingLeft=6;" parent="KNKU7a6bH15Ss6Z8EOJB-88" vertex="1">
          <mxGeometry x="30" width="235" height="30" as="geometry">
            <mxRectangle width="235" height="30" as="alternateBounds" />
          </mxGeometry>
        </mxCell>
        <mxCell id="KNKU7a6bH15Ss6Z8EOJB-91" value="" style="shape=partialRectangle;collapsible=0;dropTarget=0;pointerEvents=0;fillColor=none;points=[[0,0.5],[1,0.5]];portConstraint=eastwest;top=0;left=0;right=0;bottom=0;" parent="KNKU7a6bH15Ss6Z8EOJB-84" vertex="1">
          <mxGeometry y="90" width="265" height="30" as="geometry" />
        </mxCell>
        <mxCell id="KNKU7a6bH15Ss6Z8EOJB-92" value="FK2" style="shape=partialRectangle;overflow=hidden;connectable=0;fillColor=none;top=0;left=0;bottom=0;right=0;" parent="KNKU7a6bH15Ss6Z8EOJB-91" vertex="1">
          <mxGeometry width="30" height="30" as="geometry">
            <mxRectangle width="30" height="30" as="alternateBounds" />
          </mxGeometry>
        </mxCell>
        <mxCell id="KNKU7a6bH15Ss6Z8EOJB-93" value="year_id int NOT NULL" style="shape=partialRectangle;overflow=hidden;connectable=0;fillColor=none;top=0;left=0;bottom=0;right=0;align=left;spacingLeft=6;" parent="KNKU7a6bH15Ss6Z8EOJB-91" vertex="1">
          <mxGeometry x="30" width="235" height="30" as="geometry">
            <mxRectangle width="235" height="30" as="alternateBounds" />
          </mxGeometry>
        </mxCell>
        <mxCell id="KNKU7a6bH15Ss6Z8EOJB-112" value="" style="shape=partialRectangle;collapsible=0;dropTarget=0;pointerEvents=0;fillColor=none;points=[[0,0.5],[1,0.5]];portConstraint=eastwest;top=0;left=0;right=0;bottom=0;" parent="KNKU7a6bH15Ss6Z8EOJB-84" vertex="1">
          <mxGeometry y="120" width="265" height="30" as="geometry" />
        </mxCell>
        <mxCell id="KNKU7a6bH15Ss6Z8EOJB-113" value="" style="shape=partialRectangle;overflow=hidden;connectable=0;fillColor=none;top=0;left=0;bottom=0;right=0;" parent="KNKU7a6bH15Ss6Z8EOJB-112" vertex="1">
          <mxGeometry width="30" height="30" as="geometry">
            <mxRectangle width="30" height="30" as="alternateBounds" />
          </mxGeometry>
        </mxCell>
        <mxCell id="KNKU7a6bH15Ss6Z8EOJB-114" value="immigration_per_100000 float NOT NULL" style="shape=partialRectangle;overflow=hidden;connectable=0;fillColor=none;top=0;left=0;bottom=0;right=0;align=left;spacingLeft=6;" parent="KNKU7a6bH15Ss6Z8EOJB-112" vertex="1">
          <mxGeometry x="30" width="235" height="30" as="geometry">
            <mxRectangle width="235" height="30" as="alternateBounds" />
          </mxGeometry>
        </mxCell>
        <mxCell id="KNKU7a6bH15Ss6Z8EOJB-115" value="Year" style="shape=table;startSize=30;container=1;collapsible=1;childLayout=tableLayout;fixedRows=1;rowLines=0;fontStyle=1;align=center;resizeLast=1;" parent="1" vertex="1">
          <mxGeometry x="50" y="320" width="250" height="100" as="geometry" />
        </mxCell>
        <mxCell id="KNKU7a6bH15Ss6Z8EOJB-116" value="" style="shape=partialRectangle;collapsible=0;dropTarget=0;pointerEvents=0;fillColor=none;points=[[0,0.5],[1,0.5]];portConstraint=eastwest;top=0;left=0;right=0;bottom=1;" parent="KNKU7a6bH15Ss6Z8EOJB-115" vertex="1">
          <mxGeometry y="30" width="250" height="30" as="geometry" />
        </mxCell>
        <mxCell id="KNKU7a6bH15Ss6Z8EOJB-117" value="PK" style="shape=partialRectangle;overflow=hidden;connectable=0;fillColor=none;top=0;left=0;bottom=0;right=0;fontStyle=1;" parent="KNKU7a6bH15Ss6Z8EOJB-116" vertex="1">
          <mxGeometry width="30" height="30" as="geometry">
            <mxRectangle width="30" height="30" as="alternateBounds" />
          </mxGeometry>
        </mxCell>
        <mxCell id="KNKU7a6bH15Ss6Z8EOJB-118" value="year_id int NOT NULL" style="shape=partialRectangle;overflow=hidden;connectable=0;fillColor=none;top=0;left=0;bottom=0;right=0;align=left;spacingLeft=6;fontStyle=5;" parent="KNKU7a6bH15Ss6Z8EOJB-116" vertex="1">
          <mxGeometry x="30" width="220" height="30" as="geometry">
            <mxRectangle width="220" height="30" as="alternateBounds" />
          </mxGeometry>
        </mxCell>
        <mxCell id="KNKU7a6bH15Ss6Z8EOJB-137" style="shape=partialRectangle;collapsible=0;dropTarget=0;pointerEvents=0;points=[[0,0.5],[1,0.5]];portConstraint=eastwest;top=0;left=0;right=0;bottom=0;fillColor=none;strokeColor=inherit;strokeWidth=0;" parent="KNKU7a6bH15Ss6Z8EOJB-115" vertex="1">
          <mxGeometry y="60" width="250" height="30" as="geometry" />
        </mxCell>
        <mxCell id="KNKU7a6bH15Ss6Z8EOJB-138" style="shape=partialRectangle;overflow=hidden;connectable=0;fillColor=none;top=0;left=0;bottom=0;right=0;strokeColor=default;strokeWidth=0;" parent="KNKU7a6bH15Ss6Z8EOJB-137" vertex="1">
          <mxGeometry width="30" height="30" as="geometry">
            <mxRectangle width="30" height="30" as="alternateBounds" />
          </mxGeometry>
        </mxCell>
        <mxCell id="KNKU7a6bH15Ss6Z8EOJB-139" value="year int NOT NULL" style="shape=partialRectangle;overflow=hidden;connectable=0;fillColor=none;top=0;left=0;bottom=0;right=0;align=left;spacingLeft=6;strokeColor=inherit;strokeWidth=0;perimeterSpacing=0;allowArrows=1;" parent="KNKU7a6bH15Ss6Z8EOJB-137" vertex="1">
          <mxGeometry x="30" width="220" height="30" as="geometry">
            <mxRectangle width="220" height="30" as="alternateBounds" />
          </mxGeometry>
        </mxCell>
        <mxCell id="vbhIN1fAdOpXjTdWAV8Q-2" value="Population" style="shape=table;startSize=30;container=1;collapsible=1;childLayout=tableLayout;fixedRows=1;rowLines=0;fontStyle=1;align=center;resizeLast=1;" parent="1" vertex="1">
          <mxGeometry x="460" y="470" width="230" height="160" as="geometry" />
        </mxCell>
        <mxCell id="vbhIN1fAdOpXjTdWAV8Q-3" value="" style="shape=partialRectangle;collapsible=0;dropTarget=0;pointerEvents=0;fillColor=none;points=[[0,0.5],[1,0.5]];portConstraint=eastwest;top=0;left=0;right=0;bottom=1;" parent="vbhIN1fAdOpXjTdWAV8Q-2" vertex="1">
          <mxGeometry y="30" width="230" height="30" as="geometry" />
        </mxCell>
        <mxCell id="vbhIN1fAdOpXjTdWAV8Q-4" value="PK" style="shape=partialRectangle;overflow=hidden;connectable=0;fillColor=none;top=0;left=0;bottom=0;right=0;fontStyle=1;" parent="vbhIN1fAdOpXjTdWAV8Q-3" vertex="1">
          <mxGeometry width="30" height="30" as="geometry">
            <mxRectangle width="30" height="30" as="alternateBounds" />
          </mxGeometry>
        </mxCell>
        <mxCell id="vbhIN1fAdOpXjTdWAV8Q-5" value="population_id int NOT NULL" style="shape=partialRectangle;overflow=hidden;connectable=0;fillColor=none;top=0;left=0;bottom=0;right=0;align=left;spacingLeft=6;fontStyle=5;" parent="vbhIN1fAdOpXjTdWAV8Q-3" vertex="1">
          <mxGeometry x="30" width="200" height="30" as="geometry">
            <mxRectangle width="200" height="30" as="alternateBounds" />
          </mxGeometry>
        </mxCell>
        <mxCell id="vbhIN1fAdOpXjTdWAV8Q-9" value="" style="shape=partialRectangle;collapsible=0;dropTarget=0;pointerEvents=0;fillColor=none;points=[[0,0.5],[1,0.5]];portConstraint=eastwest;top=0;left=0;right=0;bottom=0;" parent="vbhIN1fAdOpXjTdWAV8Q-2" vertex="1">
          <mxGeometry y="60" width="230" height="30" as="geometry" />
        </mxCell>
        <mxCell id="vbhIN1fAdOpXjTdWAV8Q-10" value="FK1" style="shape=partialRectangle;overflow=hidden;connectable=0;fillColor=none;top=0;left=0;bottom=0;right=0;" parent="vbhIN1fAdOpXjTdWAV8Q-9" vertex="1">
          <mxGeometry width="30" height="30" as="geometry">
            <mxRectangle width="30" height="30" as="alternateBounds" />
          </mxGeometry>
        </mxCell>
        <mxCell id="vbhIN1fAdOpXjTdWAV8Q-11" value="country_iso3_id char(3) NOT NULL" style="shape=partialRectangle;overflow=hidden;connectable=0;fillColor=none;top=0;left=0;bottom=0;right=0;align=left;spacingLeft=6;" parent="vbhIN1fAdOpXjTdWAV8Q-9" vertex="1">
          <mxGeometry x="30" width="200" height="30" as="geometry">
            <mxRectangle width="200" height="30" as="alternateBounds" />
          </mxGeometry>
        </mxCell>
        <mxCell id="vbhIN1fAdOpXjTdWAV8Q-6" value="" style="shape=partialRectangle;collapsible=0;dropTarget=0;pointerEvents=0;fillColor=none;points=[[0,0.5],[1,0.5]];portConstraint=eastwest;top=0;left=0;right=0;bottom=0;" parent="vbhIN1fAdOpXjTdWAV8Q-2" vertex="1">
          <mxGeometry y="90" width="230" height="30" as="geometry" />
        </mxCell>
        <mxCell id="vbhIN1fAdOpXjTdWAV8Q-7" value="FK2" style="shape=partialRectangle;overflow=hidden;connectable=0;fillColor=none;top=0;left=0;bottom=0;right=0;" parent="vbhIN1fAdOpXjTdWAV8Q-6" vertex="1">
          <mxGeometry width="30" height="30" as="geometry">
            <mxRectangle width="30" height="30" as="alternateBounds" />
          </mxGeometry>
        </mxCell>
        <mxCell id="vbhIN1fAdOpXjTdWAV8Q-8" value="year_id int NOT NULL" style="shape=partialRectangle;overflow=hidden;connectable=0;fillColor=none;top=0;left=0;bottom=0;right=0;align=left;spacingLeft=6;" parent="vbhIN1fAdOpXjTdWAV8Q-6" vertex="1">
          <mxGeometry x="30" width="200" height="30" as="geometry">
            <mxRectangle width="200" height="30" as="alternateBounds" />
          </mxGeometry>
        </mxCell>
        <mxCell id="vbhIN1fAdOpXjTdWAV8Q-15" style="shape=partialRectangle;collapsible=0;dropTarget=0;pointerEvents=0;fillColor=none;points=[[0,0.5],[1,0.5]];portConstraint=eastwest;top=0;left=0;right=0;bottom=0;" parent="vbhIN1fAdOpXjTdWAV8Q-2" vertex="1">
          <mxGeometry y="120" width="230" height="30" as="geometry" />
        </mxCell>
        <mxCell id="vbhIN1fAdOpXjTdWAV8Q-16" style="shape=partialRectangle;overflow=hidden;connectable=0;fillColor=none;top=0;left=0;bottom=0;right=0;" parent="vbhIN1fAdOpXjTdWAV8Q-15" vertex="1">
          <mxGeometry width="30" height="30" as="geometry">
            <mxRectangle width="30" height="30" as="alternateBounds" />
          </mxGeometry>
        </mxCell>
        <mxCell id="vbhIN1fAdOpXjTdWAV8Q-17" value="population int NOT NULL" style="shape=partialRectangle;overflow=hidden;connectable=0;fillColor=none;top=0;left=0;bottom=0;right=0;align=left;spacingLeft=6;" parent="vbhIN1fAdOpXjTdWAV8Q-15" vertex="1">
          <mxGeometry x="30" width="200" height="30" as="geometry">
            <mxRectangle width="200" height="30" as="alternateBounds" />
          </mxGeometry>
        </mxCell>
        <mxCell id="F54rX1gRR6l31rGcLVEx-57" style="edgeStyle=orthogonalEdgeStyle;rounded=1;orthogonalLoop=1;jettySize=auto;html=1;entryX=0;entryY=0.5;entryDx=0;entryDy=0;exitX=1;exitY=0.5;exitDx=0;exitDy=0;curved=0;jumpStyle=arc;jumpSize=12;" edge="1" parent="1" source="KNKU7a6bH15Ss6Z8EOJB-5" target="C-vyLk0tnHw3VtMMgP7b-3">
          <mxGeometry relative="1" as="geometry">
            <mxPoint x="780" y="90" as="sourcePoint" />
            <Array as="points">
              <mxPoint x="710" y="145" />
              <mxPoint x="750" y="145" />
              <mxPoint x="750" y="330" />
            </Array>
          </mxGeometry>
        </mxCell>
        <mxCell id="F54rX1gRR6l31rGcLVEx-58" style="edgeStyle=orthogonalEdgeStyle;rounded=1;orthogonalLoop=1;jettySize=auto;html=1;entryX=0;entryY=0.5;entryDx=0;entryDy=0;exitX=1;exitY=0.5;exitDx=0;exitDy=0;curved=0;jumpStyle=arc;jumpSize=12;" edge="1" parent="1" source="KNKU7a6bH15Ss6Z8EOJB-88" target="C-vyLk0tnHw3VtMMgP7b-3">
          <mxGeometry relative="1" as="geometry">
            <mxPoint x="725" y="330" as="sourcePoint" />
            <Array as="points">
              <mxPoint x="770" y="330" />
              <mxPoint x="770" y="330" />
            </Array>
          </mxGeometry>
        </mxCell>
        <mxCell id="F54rX1gRR6l31rGcLVEx-60" style="edgeStyle=orthogonalEdgeStyle;rounded=1;orthogonalLoop=1;jettySize=auto;html=1;entryX=0;entryY=0.5;entryDx=0;entryDy=0;exitX=1;exitY=0.5;exitDx=0;exitDy=0;curved=0;jumpStyle=arc;jumpSize=12;" edge="1" parent="1" source="vbhIN1fAdOpXjTdWAV8Q-9" target="C-vyLk0tnHw3VtMMgP7b-3">
          <mxGeometry relative="1" as="geometry">
            <Array as="points">
              <mxPoint x="750" y="545" />
              <mxPoint x="750" y="330" />
            </Array>
          </mxGeometry>
        </mxCell>
        <mxCell id="F54rX1gRR6l31rGcLVEx-61" value="" style="shape=curlyBracket;whiteSpace=wrap;html=1;rounded=1;labelPosition=left;verticalLabelPosition=middle;align=right;verticalAlign=middle;" vertex="1" parent="1">
          <mxGeometry x="440" y="100" width="20" height="60" as="geometry" />
        </mxCell>
        <mxCell id="F54rX1gRR6l31rGcLVEx-62" value="Unique" style="text;html=1;align=center;verticalAlign=middle;resizable=0;points=[];autosize=1;strokeColor=none;fillColor=none;rounded=0;gradientColor=none;" vertex="1" parent="1">
          <mxGeometry x="360" y="100" width="60" height="30" as="geometry" />
        </mxCell>
        <mxCell id="F54rX1gRR6l31rGcLVEx-63" value="" style="shape=curlyBracket;whiteSpace=wrap;html=1;rounded=1;labelPosition=left;verticalLabelPosition=middle;align=right;verticalAlign=middle;" vertex="1" parent="1">
          <mxGeometry x="440" y="320" width="20" height="50" as="geometry" />
        </mxCell>
        <mxCell id="F54rX1gRR6l31rGcLVEx-65" value="" style="shape=curlyBracket;whiteSpace=wrap;html=1;rounded=1;labelPosition=left;verticalLabelPosition=middle;align=right;verticalAlign=middle;" vertex="1" parent="1">
          <mxGeometry x="440" y="530" width="20" height="60" as="geometry" />
        </mxCell>
        <mxCell id="F54rX1gRR6l31rGcLVEx-48" style="edgeStyle=orthogonalEdgeStyle;rounded=1;orthogonalLoop=1;jettySize=auto;html=1;curved=0;jumpStyle=arc;jumpSize=12;exitX=0;exitY=0.5;exitDx=0;exitDy=0;" edge="1" parent="1" source="C-vyLk0tnHw3VtMMgP7b-27">
          <mxGeometry relative="1" as="geometry">
            <mxPoint x="300" y="360" as="targetPoint" />
            <Array as="points">
              <mxPoint x="340" y="145" />
              <mxPoint x="340" y="360" />
            </Array>
          </mxGeometry>
        </mxCell>
        <mxCell id="F54rX1gRR6l31rGcLVEx-49" style="edgeStyle=orthogonalEdgeStyle;rounded=1;orthogonalLoop=1;jettySize=auto;html=1;curved=0;jumpStyle=arc;jumpSize=12;exitX=0;exitY=0.5;exitDx=0;exitDy=0;" edge="1" parent="1" source="KNKU7a6bH15Ss6Z8EOJB-91">
          <mxGeometry relative="1" as="geometry">
            <mxPoint x="430" y="400" as="sourcePoint" />
            <mxPoint x="300" y="360" as="targetPoint" />
            <Array as="points">
              <mxPoint x="300" y="360" />
            </Array>
          </mxGeometry>
        </mxCell>
        <mxCell id="F54rX1gRR6l31rGcLVEx-50" style="edgeStyle=orthogonalEdgeStyle;rounded=1;orthogonalLoop=1;jettySize=auto;html=1;curved=0;jumpStyle=arc;jumpSize=12;" edge="1" parent="1" source="vbhIN1fAdOpXjTdWAV8Q-6">
          <mxGeometry relative="1" as="geometry">
            <mxPoint x="300" y="360" as="targetPoint" />
            <Array as="points">
              <mxPoint x="340" y="575" />
              <mxPoint x="340" y="360" />
              <mxPoint x="300" y="360" />
            </Array>
          </mxGeometry>
        </mxCell>
        <mxCell id="F54rX1gRR6l31rGcLVEx-71" value="" style="shape=note;whiteSpace=wrap;html=1;backgroundOutline=1;darkOpacity=0.05;size=19;" vertex="1" parent="1">
          <mxGeometry x="360" y="310" width="80" height="40" as="geometry" />
        </mxCell>
        <mxCell id="F54rX1gRR6l31rGcLVEx-72" value="Unique" style="text;html=1;align=center;verticalAlign=middle;resizable=0;points=[];autosize=1;strokeColor=none;fillColor=none;rounded=0;gradientColor=none;" vertex="1" parent="1">
          <mxGeometry x="360" y="320" width="60" height="30" as="geometry" />
        </mxCell>
        <mxCell id="F54rX1gRR6l31rGcLVEx-73" value="" style="shape=note;whiteSpace=wrap;html=1;backgroundOutline=1;darkOpacity=0.05;size=19;" vertex="1" parent="1">
          <mxGeometry x="360" y="520" width="80" height="40" as="geometry" />
        </mxCell>
        <mxCell id="F54rX1gRR6l31rGcLVEx-74" value="Unique" style="text;html=1;align=center;verticalAlign=middle;resizable=0;points=[];autosize=1;strokeColor=none;fillColor=none;rounded=0;gradientColor=none;" vertex="1" parent="1">
          <mxGeometry x="360" y="530" width="60" height="30" as="geometry" />
        </mxCell>
      </root>
    </mxGraphModel>
  </diagram>
</mxfile>
